<svg id="svg2" xmlns:rdf="http://www.w3.org/1999/02/22-rdf-syntax-ns#" xmlns="http://www.w3.org/2000/svg" height="320" width="320" version="1.1" xmlns:cc="http://creativecommons.org/ns#" xmlns:dc="http://purl.org/dc/elements/1.1/" viewBox="0 0 320 320.00001">
 

<g transform="translate(0.000000,32.000000) scale(0.100000,-0.100000)"
fill="#F44336" stroke="none">
<path d="M95 307 c-16 -8 -39 -24 -50 -37 l-20 -22 35 20 c67 39 118 39 213
-2 49 -22 48 -6 -3 23 -50 28 -134 36 -175 18z"/>
<path d="M88 254 c-25 -13 -48 -42 -48 -60 0 -4 12 4 28 18 37 37 79 50 125
42 28 -4 37 -3 33 5 -10 16 -106 13 -138 -5z"/>
<path d="M124 216 c-17 -8 -34 -22 -38 -32 -6 -16 -3 -15 17 4 13 12 35 22 50
22 15 0 27 5 27 10 0 13 -19 12 -56 -4z"/>
<path d="M160 164 c0 -16 -2 -17 -10 -4 -7 10 -10 11 -10 2 0 -17 29 -27 41
-15 6 6 4 14 -6 23 -13 10 -15 9 -15 -6z"/>
<path d="M213 119 c-6 -6 -26 -15 -45 -19 -29 -7 -30 -8 -7 -9 15 -1 37 8 50
19 13 10 22 19 19 20 -4 0 -11 -5 -17 -11z"/>
<path d="M261 109 c-19 -32 -78 -52 -129 -44 -30 4 -42 3 -37 -4 3 -6 33 -11
66 -11 53 0 63 3 96 33 20 19 32 37 27 40 -6 3 -16 -3 -23 -14z"/>
<path d="M16 49 c12 -20 89 -49 132 -49 47 0 100 19 120 43 10 12 5 11 -25 -4
-49 -25 -127 -25 -178 1 -44 22 -59 25 -49 9z"/>
</g>
</svg>
