<svg id="svg2" xmlns:rdf="http://www.w3.org/1999/02/22-rdf-syntax-ns#" xmlns="http://www.w3.org/2000/svg" height="320" width="1543.4" version="1.1" xmlns:cc="http://creativecommons.org/ns#" xmlns:dc="http://purl.org/dc/elements/1.1/" viewBox="0 0 1543.4268 320.00026">
 

<g transform="translate(0.000000,447.000000) scale(0.100000,-0.100000)"
fill="#F44336" stroke="none">
<path d="M1559 4455 c-566 -92 -1019 -433 -1195 -901 -13 -36 -22 -69 -19 -72
2 -3 44 34 92 82 145 146 330 276 531 375 272 135 475 188 762 198 515 18 990
-158 1323 -492 l67 -68 133 -8 c72 -5 171 -16 220 -24 48 -8 90 -15 93 -15 19
0 -246 272 -362 371 -177 153 -325 254 -509 349 -175 91 -340 150 -535 191
-126 27 -472 35 -601 14z"/>
<path d="M1605 3785 c-391 -62 -727 -260 -956 -561 -75 -99 -162 -248 -200
-341 l-22 -54 49 -130 c27 -71 53 -128 57 -126 5 1 26 47 46 102 160 422 490
744 889 869 261 82 581 71 848 -29 l72 -27 79 26 c44 13 108 28 142 32 38 4
60 11 58 18 -9 28 -275 140 -429 181 -201 54 -451 69 -633 40z"/>
<path d="M1685 3143 c-112 -25 -193 -51 -260 -84 -221 -108 -398 -321 -465
-559 -24 -84 -41 -340 -23 -340 6 0 14 35 18 78 29 310 233 590 515 705 129
52 176 61 325 62 77 0 161 -4 188 -8 l47 -8 0 69 0 69 -82 11 c-81 12 -222 14
-263 5z"/>
<path d="M6902 2985 l-27 -44 -192 -1 c-179 0 -194 -1 -213 -20 -23 -23 -28
-88 -8 -108 8 -8 65 -12 191 -12 158 0 178 -2 167 -15 -10 -12 -41 -15 -157
-15 -139 0 -145 -1 -168 -25 -30 -29 -32 -68 -5 -95 18 -18 33 -20 136 -20
102 0 115 -2 104 -15 -10 -12 -41 -15 -156 -15 -131 0 -146 -2 -164 -20 -12
-12 -20 -33 -20 -54 0 -54 26 -66 140 -66 l95 -1 -45 -41 c-25 -22 -80 -67
-122 -100 -82 -62 -99 -91 -80 -133 24 -53 92 -39 196 39 l48 38 27 -26 c15
-14 36 -26 47 -26 24 0 -73 -46 -188 -89 -94 -36 -120 -57 -120 -96 0 -72 56
-71 256 5 161 62 196 86 196 136 0 40 -32 78 -61 71 -17 -5 -18 -3 -4 16 22
31 19 53 -14 89 l-29 32 36 43 36 43 145 0 c144 0 145 0 173 -27 15 -15 28
-30 28 -35 0 -4 -19 -20 -42 -35 -57 -36 -68 -51 -68 -90 0 -23 7 -37 24 -48
l24 -16 -24 -26 c-15 -16 -24 -38 -24 -59 0 -32 3 -34 156 -113 86 -45 166
-81 178 -81 53 0 90 88 50 117 -52 38 -207 125 -259 145 -58 22 -58 22 -29 31
16 6 48 23 70 38 l41 28 24 -25 c35 -38 110 -84 135 -84 27 0 84 62 84 92 0
12 -19 37 -47 62 -26 22 -70 62 -98 88 l-50 48 88 0 c99 0 127 16 127 69 0 59
-13 61 -333 61 -256 0 -288 2 -277 15 10 13 53 15 265 15 240 0 254 1 279 21
33 26 37 92 7 109 -12 6 -109 10 -246 10 -177 0 -226 3 -223 13 4 9 65 13 250
15 232 2 246 3 264 23 24 27 24 87 -1 105 -15 11 -67 14 -236 14 l-216 0 5 25
c7 39 -22 65 -75 65 -41 0 -45 -3 -71 -45z"/>
<path d="M4406 2999 c-25 -20 -28 -27 -22 -64 l5 -43 -60 -4 c-34 -3 -66 -11
-75 -19 -22 -23 -28 -80 -11 -104 14 -18 29 -20 157 -23 102 -3 140 -7 137
-15 -2 -8 -40 -14 -103 -17 -109 -6 -129 -12 -146 -43 -6 -12 -21 -131 -34
-265 -26 -261 -25 -275 22 -292 36 -14 567 -13 597 1 12 6 29 20 37 32 18 30
62 490 50 523 -14 35 -47 44 -160 44 -84 0 -98 2 -94 15 5 12 32 15 159 15
139 0 155 2 179 21 20 16 26 29 26 58 0 56 -22 71 -104 71 -61 0 -67 2 -61 18
5 9 10 32 13 51 6 42 -15 61 -69 61 -30 0 -43 -7 -65 -34 -16 -18 -37 -47 -46
-65 -17 -31 -18 -31 -93 -31 -74 0 -76 1 -86 28 -28 79 -42 97 -85 100 -29 2
-47 -3 -68 -19z m404 -429 c0 -19 -7 -20 -195 -20 -156 0 -195 3 -195 13 0 8
3 17 7 20 3 4 91 7 195 7 181 0 188 -1 188 -20z m-17 -160 c-5 -19 -14 -20
-194 -20 -182 0 -189 1 -189 20 0 19 7 20 194 20 189 0 194 -1 189 -20z m-13
-150 c0 -19 -7 -20 -195 -20 -188 0 -195 1 -195 20 0 19 7 20 195 20 188 0
195 -1 195 -20z"/>
<path d="M5819 2991 c-18 -14 -23 -31 -27 -80 l-4 -61 -124 0 c-134 0 -165 -7
-188 -42 -15 -23 -56 -375 -56 -484 0 -80 14 -88 173 -92 l132 -4 -13 -141
-14 -142 27 -22 c30 -27 62 -29 92 -8 28 19 40 61 48 160 3 44 8 97 11 118 l6
37 133 0 c195 0 181 -20 212 300 26 274 24 292 -23 310 -14 6 -80 10 -146 10
l-121 0 7 58 c8 75 -8 102 -63 102 -23 0 -48 -8 -62 -19z m-49 -298 c0 -10 -7
-81 -15 -158 -8 -77 -15 -146 -15 -152 0 -10 -24 -13 -85 -13 l-85 0 0 32 c0
40 19 256 26 286 4 21 9 22 89 22 74 0 85 -2 85 -17z m326 -25 c-3 -24 -10
-97 -17 -163 -6 -66 -13 -123 -15 -127 -3 -5 -44 -8 -91 -8 -83 0 -85 1 -80
23 3 12 11 88 18 170 l12 147 90 0 89 0 -6 -42z"/>
<path d="M8005 2994 c-49 -7 -127 -13 -171 -13 -65 -1 -86 -5 -107 -21 -33
-26 -42 -65 -22 -96 14 -22 22 -24 95 -24 87 0 84 2 74 -62 l-7 -38 -83 0
c-100 0 -124 -15 -124 -78 0 -54 13 -62 97 -62 l74 0 -55 -107 c-31 -60 -82
-148 -116 -198 -57 -86 -69 -117 -52 -141 13 -20 54 -36 77 -30 28 7 82 71
119 141 26 49 27 49 22 15 -17 -125 -29 -333 -19 -348 11 -19 52 -27 88 -18
34 9 42 43 61 259 l17 198 41 -40 c49 -48 64 -50 105 -15 47 39 41 67 -30 149
-78 89 -100 121 -92 129 3 3 28 6 55 6 57 0 98 31 98 75 0 42 -33 65 -91 65
l-52 0 7 52 c4 29 9 54 11 57 2 2 26 7 52 12 96 18 131 49 117 105 -12 47 -35
50 -189 28z"/>
<path d="M8580 2982 c-21 -17 -25 -37 -52 -328 -17 -170 -31 -310 -32 -312 -4
-3 -96 -20 -271 -47 -177 -28 -196 -37 -198 -98 -1 -47 17 -67 62 -67 20 0
115 14 210 30 96 16 177 27 179 25 3 -3 0 -55 -6 -116 -13 -121 -10 -133 36
-150 29 -11 88 12 95 38 3 10 8 54 12 98 11 146 15 165 37 165 32 0 75 28 82
52 15 58 -5 88 -59 88 -32 0 -34 1 -29 33 2 17 16 153 30 300 24 255 24 270 8
288 -22 24 -75 25 -104 1z"/>
<path d="M3982 2937 c-38 -40 -29 -63 54 -141 91 -85 98 -90 129 -82 67 17 75
84 18 148 -48 52 -119 98 -153 98 -15 0 -36 -10 -48 -23z"/>
<path d="M5223 2940 c-36 -33 -36 -53 5 -162 65 -173 84 -198 136 -178 40 15
60 53 52 102 -9 55 -73 208 -99 236 -25 27 -66 28 -94 2z"/>
<path d="M8219 2919 c-16 -17 -29 -39 -29 -48 0 -24 222 -241 246 -241 53 0
94 63 70 108 -22 40 -103 129 -159 173 -60 48 -89 49 -128 8z"/>
<path d="M8155 2625 c-31 -30 -31 -43 -1 -84 33 -45 165 -180 187 -191 36 -20
99 26 99 72 0 24 -19 49 -98 129 -84 85 -103 99 -131 99 -21 0 -41 -9 -56 -25z"/>
<path d="M3946 2578 c-60 -54 -29 -128 54 -128 l40 0 -5 -37 c-3 -21 -10 -90
-16 -153 l-10 -115 -69 -65 c-82 -77 -94 -107 -56 -144 41 -41 65 -34 158 45
31 27 59 49 63 49 3 0 22 -12 40 -26 88 -66 252 -94 561 -94 196 0 242 8 263
48 16 31 13 67 -7 85 -16 15 -51 17 -283 17 -285 0 -378 9 -439 40 -71 36 -75
50 -61 218 7 81 15 166 18 189 5 35 2 45 -20 67 -24 24 -33 26 -116 26 -79 0
-93 -3 -115 -22z"/>
<path d="M5301 2473 c-14 -12 -42 -73 -75 -168 -30 -82 -69 -185 -87 -228 -31
-73 -32 -80 -19 -104 20 -35 61 -48 97 -31 36 17 78 104 143 295 56 164 62
214 28 237 -29 21 -61 20 -87 -1z"/>
<path d="M1722 2453 c-63 -22 -138 -101 -157 -165 -19 -65 -19 -96 0 -153 14
-40 65 -128 65 -111 0 3 9 -3 21 -15 60 -60 178 -75 265 -35 103 48 154 125
154 236 0 80 -23 133 -80 188 -71 68 -172 89 -268 55z m87 -128 c38 -37 37
-104 -2 -142 -22 -22 -37 -28 -72 -28 -35 0 -50 6 -72 28 -50 50 -33 140 32
168 32 14 87 2 114 -26z"/>
<path d="M6913 2430 c-34 -14 -40 -35 -53 -185 -15 -181 -17 -185 -78 -185
-65 0 -92 -20 -92 -70 0 -60 17 -70 120 -70 104 0 134 9 154 47 8 16 21 100
30 193 9 91 18 180 21 198 3 26 -1 39 -20 58 -25 25 -45 29 -82 14z"/>
<path d="M2606 2284 c-3 -26 -6 -72 -6 -104 0 -114 -69 -309 -149 -421 -81
-113 -216 -225 -335 -279 -133 -60 -205 -75 -379 -75 l-158 0 3 -65 3 -65 60
-8 c191 -26 432 35 601 151 61 42 167 146 223 219 44 58 108 197 132 290 24
87 40 403 22 403 -6 0 -13 -21 -17 -46z"/>
<path d="M3073 1863 c-116 -317 -267 -539 -488 -719 -211 -171 -457 -268 -735
-289 -157 -12 -379 22 -545 83 l-80 30 -48 -18 c-49 -19 -115 -35 -185 -45
-23 -4 -42 -11 -42 -16 0 -20 265 -133 407 -173 231 -66 497 -80 711 -38 135
27 299 84 414 143 283 147 526 401 662 693 52 112 52 103 -1 241 -26 69 -51
125 -56 125 -4 0 -11 -8 -14 -17z"/>
<path d="M4424 1650 c-26 -10 -40 -33 -138 -225 -84 -163 -89 -189 -32 -183
23 2 37 12 55 41 l24 37 74 0 c67 0 73 -2 73 -21 0 -36 19 -59 49 -59 55 0 56
14 16 202 -37 173 -48 208 -65 208 -4 0 -14 2 -22 4 -7 3 -23 1 -34 -4z m31
-207 l6 -43 -46 0 c-26 0 -45 4 -43 8 2 4 16 39 33 77 l29 68 7 -34 c4 -18 10
-53 14 -76z"/>
<path d="M4821 1648 c-60 -10 -115 -49 -145 -100 -91 -157 -27 -311 129 -311
96 0 167 48 206 137 39 92 21 203 -41 248 -35 24 -97 36 -149 26z m72 -89 c66
-30 61 -163 -8 -217 -34 -27 -94 -29 -125 -4 -33 27 -38 98 -12 154 33 67 89
93 145 67z"/>
<path d="M5261 1649 c-122 -23 -212 -165 -181 -286 21 -85 79 -127 176 -126
96 1 162 50 120 91 -14 14 -22 14 -66 3 -89 -23 -140 9 -140 88 0 100 76 161
173 138 55 -12 80 2 75 42 -5 42 -77 65 -157 50z"/>
<path d="M6071 1648 c-60 -10 -115 -49 -145 -100 -91 -157 -27 -311 129 -311
96 0 167 48 206 137 39 92 21 203 -41 248 -35 24 -97 36 -149 26z m72 -89 c66
-30 61 -163 -8 -217 -34 -27 -94 -29 -125 -4 -33 27 -38 98 -12 154 33 67 89
93 145 67z"/>
<path d="M6921 1648 c-89 -15 -155 -85 -182 -190 -21 -86 13 -167 86 -206 43
-22 132 -19 183 7 66 34 117 117 110 182 l-3 34 -84 0 c-69 0 -86 -3 -95 -17
-17 -27 4 -52 48 -56 44 -4 45 -14 7 -53 -35 -35 -95 -40 -131 -11 -33 27 -38
98 -11 154 36 75 101 97 174 58 47 -25 62 -25 81 2 40 57 -70 116 -183 96z"/>
<path d="M8071 1649 c-122 -23 -212 -165 -181 -286 21 -85 79 -127 176 -126
96 1 162 50 120 91 -14 14 -22 14 -66 3 -89 -23 -140 9 -140 88 0 100 76 161
173 138 55 -12 80 2 75 42 -5 42 -77 65 -157 50z"/>
<path d="M3906 1637 c-13 -10 -23 -52 -43 -190 -14 -97 -23 -184 -19 -192 4
-12 25 -15 99 -15 79 0 101 4 143 25 78 39 124 118 124 212 0 80 -39 138 -109
162 -46 15 -173 14 -195 -2z m181 -99 c18 -17 23 -32 23 -72 0 -88 -54 -146
-136 -146 l-37 0 6 38 c3 20 11 74 18 120 l11 82 46 0 c33 0 52 -6 69 -22z"/>
<path d="M5510 1635 c-14 -17 -65 -358 -56 -380 7 -18 59 -20 73 -2 6 6 13 30
17 52 17 105 7 95 102 95 46 0 84 -1 84 -2 0 -2 -5 -30 -10 -63 -5 -33 -7 -68
-4 -77 7 -25 70 -25 82 0 14 26 56 356 49 375 -9 23 -63 23 -76 -1 -5 -9 -12
-35 -16 -57 -15 -93 -6 -85 -100 -85 -83 0 -85 1 -81 23 23 109 18 137 -23
137 -16 0 -34 -7 -41 -15z"/>
<path d="M6370 1640 c-19 -12 -73 -369 -58 -387 16 -19 66 -16 76 5 5 9 15 61
22 115 7 53 16 97 20 97 4 0 27 -33 50 -72 81 -137 98 -158 130 -158 18 0 33
7 38 18 13 23 54 322 50 358 -2 22 -9 30 -26 32 -43 6 -59 -21 -73 -129 -7
-55 -15 -102 -19 -104 -3 -2 -39 50 -79 116 -74 122 -90 135 -131 109z"/>
<path d="M7312 1638 c-17 -17 -15 -65 4 -72 9 -3 28 -6 43 -6 l27 0 -20 -143
c-11 -79 -17 -151 -13 -160 8 -20 59 -23 75 -4 7 9 52 268 52 303 0 2 16 4 35
4 36 0 75 28 75 53 0 31 -24 37 -145 37 -81 0 -125 -4 -133 -12z"/>
<path d="M7646 1637 c-13 -10 -23 -52 -43 -190 -14 -97 -23 -184 -19 -192 4
-12 25 -15 103 -15 103 0 115 4 126 34 12 32 -11 46 -74 46 -63 0 -67 4 -53
58 6 19 13 22 59 22 38 0 56 5 68 18 39 42 13 72 -61 72 -45 0 -53 3 -48 16 3
9 6 24 6 35 0 16 7 19 53 19 78 0 122 41 85 78 -17 17 -179 16 -202 -1z"/>
<path d="M8310 1635 c-14 -17 -65 -358 -56 -380 7 -18 59 -20 73 -2 6 6 13 30
17 52 17 105 7 95 102 95 46 0 84 -1 84 -2 0 -2 -5 -30 -10 -63 -5 -33 -7 -68
-4 -77 7 -25 70 -25 82 0 14 26 56 356 49 375 -9 23 -63 23 -76 -1 -5 -9 -12
-35 -16 -57 -15 -93 -6 -85 -100 -85 -83 0 -85 1 -81 23 23 109 18 137 -23
137 -16 0 -34 -7 -41 -15z"/>
<path d="M3165 908 c-10 -18 -55 -71 -99 -117 -398 -411 -1105 -601 -1751
-469 -216 44 -464 145 -641 260 -93 62 -256 190 -282 222 -11 15 -33 25 -62
30 -25 4 -105 20 -178 36 -147 33 -152 34 -152 21 0 -19 125 -177 208 -264
254 -264 580 -464 913 -561 138 -39 380 -66 602 -66 344 1 564 48 827 181 250
125 465 339 590 586 49 98 72 173 53 173 -5 0 -17 -15 -28 -32z"/>
</g>
</svg>
